<svg width="26" height="26" fill="none" xmlns="http://www.w3.org/2000/svg"><path d="M25.519 12.832c0 6.863-5.62 12.433-12.56 12.433S.4 19.695.4 12.832C.4 5.97 6.02.4 12.96.4s12.559 5.57 12.559 12.432Z" stroke="#F8F8F8" stroke-opacity=".3" stroke-width=".8"/><path d="M13.173 8.903c1.362 0 1.523.005 2.06.03.498.022.768.104.947.174.239.091.408.2.587.377.178.177.289.345.381.58.07.179.153.446.176.938.024.533.03.692.03 2.04 0 1.349-.006 1.508-.03 2.04-.023.493-.106.76-.176.938a1.562 1.562 0 0 1-.381.58 1.581 1.581 0 0 1-.587.378c-.18.07-.45.152-.946.174-.538.024-.699.03-2.06.03-1.362 0-1.523-.006-2.06-.03-.498-.022-.768-.105-.948-.174a1.58 1.58 0 0 1-.586-.377 1.562 1.562 0 0 1-.381-.58c-.07-.179-.153-.446-.176-.938-.024-.533-.03-.692-.03-2.04 0-1.349.006-1.508.03-2.04.023-.493.106-.76.176-.938.092-.236.203-.404.381-.58a1.58 1.58 0 0 1 .586-.378c.18-.07.45-.152.947-.174.538-.024.699-.03 2.06-.03Zm0-.91c-1.384 0-1.558.006-2.102.031-.543.025-.913.11-1.237.235-.336.129-.62.301-.904.582-.283.28-.457.562-.588.894-.126.321-.212.689-.237 1.226-.024.538-.03.71-.03 2.082 0 1.37.006 1.543.03 2.081.025.537.111.905.237 1.226.13.332.305.613.588.894.284.28.568.453.904.582.324.125.694.21 1.237.235.544.024.718.03 2.102.03 1.385 0 1.559-.006 2.103-.03.542-.025.913-.11 1.237-.235.336-.129.62-.301.903-.582.284-.28.458-.562.588-.894.127-.322.213-.689.237-1.226.025-.538.031-.71.031-2.082 0-1.37-.006-1.543-.03-2.081-.025-.537-.111-.905-.238-1.226a2.472 2.472 0 0 0-.588-.894 2.502 2.502 0 0 0-.903-.582c-.324-.125-.695-.21-1.237-.235-.544-.025-.718-.03-2.103-.03Z" fill="#fff" fill-opacity=".7"/><path d="M13.173 10.451c-1.446 0-2.618 1.16-2.618 2.593 0 1.432 1.172 2.592 2.618 2.592s2.619-1.16 2.619-2.592c0-1.432-1.173-2.593-2.619-2.593Zm0 4.276c-.938 0-1.7-.754-1.7-1.683 0-.93.762-1.683 1.7-1.683.939 0 1.7.753 1.7 1.683s-.761 1.683-1.7 1.683ZM16.509 10.347a.609.609 0 0 1-.612.605.609.609 0 0 1-.612-.605c0-.335.274-.606.612-.606.338 0 .612.271.612.606Z" fill="#fff" fill-opacity=".7"/></svg>