<svg width="27" height="26" fill="none" xmlns="http://www.w3.org/2000/svg"><path d="M26.098 13.007c0 6.862-5.62 12.432-12.56 12.432S.98 19.87.98 13.007C.98 6.144 6.6.574 13.54.574s12.559 5.57 12.559 12.433Z" stroke="#F8F8F8" stroke-opacity=".3" stroke-width=".8"/><g opacity=".7" clip-path="url(#a)" fill-rule="evenodd" clip-rule="evenodd" fill="#FCFCFC"><path opacity=".89" d="M15.695 12.622c.604.432 1.427.702 2.305.702v-1.621c-.165 0-.33 0-.494-.054v1.297c-.878 0-1.646-.27-2.305-.757v3.352c0 1.675-1.372 3.027-3.073 3.027-.658 0-1.207-.217-1.701-.54.549.54 1.317.918 2.195.918 1.701 0 3.073-1.351 3.073-3.027v-3.297Zm.604-1.676c-.33-.378-.549-.81-.604-1.351v-.217h-.439c.055.703.44 1.244 1.043 1.568Zm-4.83 5.892a1.48 1.48 0 0 1-.274-.865c0-.757.659-1.405 1.427-1.405.165 0 .274 0 .439.054v-1.676h-.549v1.297c-.11-.054-.274-.054-.439-.054-.768 0-1.427.595-1.427 1.406 0 .54.33.973.824 1.243Z"/><path opacity=".78" d="M17.506 11.649v-.325A2.58 2.58 0 0 1 16.244 11c.384.324.768.54 1.262.649Zm-2.305-2.27V9H13.5v6.595c0 .756-.659 1.405-1.427 1.405-.22 0-.439-.054-.658-.162.274.324.658.54 1.152.54.768 0 1.427-.594 1.427-1.405V9.378H15.2Zm-2.689 3.567v-.378c-.164 0-.274-.054-.439-.054-1.701 0-3.073 1.405-3.073 3.08 0 1.028.549 2 1.372 2.541a2.961 2.961 0 0 1-.878-2.108c0-1.73 1.317-3.081 3.018-3.081Z"/></g><defs><clipPath id="a"><path fill="#fff" transform="translate(9 9)" d="M0 0h9v10H0z"/></clipPath></defs></svg>