<svg width="26" height="26" fill="none" xmlns="http://www.w3.org/2000/svg"><path d="M25.519 12.832c0 6.863-5.62 12.433-12.56 12.433S.4 19.695.4 12.832C.4 5.97 6.02.4 12.96.4s12.559 5.57 12.559 12.432Z" stroke="#F8F8F8" stroke-opacity=".3" stroke-width=".8"/><path fill-rule="evenodd" clip-rule="evenodd" d="M17.971 9.838c.17.168.292.377.355.606.36 1.437.277 3.708.007 5.201a1.376 1.376 0 0 1-.966.957c-.848.23-4.259.23-4.259.23s-3.41 0-4.258-.23a1.357 1.357 0 0 1-.967-.957c-.363-1.431-.263-3.703-.007-5.194a1.376 1.376 0 0 1 .967-.957c.847-.23 4.258-.236 4.258-.236s3.41 0 4.258.229c.232.062.443.183.612.35Zm-3.126 3.206-2.83 1.623v-3.245l2.83 1.622Z" fill="#fff" fill-opacity=".7"/></svg>